<svg aria-hidden="true" style="position: absolute; width: 0; height: 0; overflow: hidden;" version="1.1"
    xmlns="http://www.w3.org/2000/svg" xmlns:xlink="http://www.w3.org/1999/xlink">
    <defs>
    <symbol id="map" viewBox="0 0 20 20">
    <path fill="#101828" fill-rule="evenodd" d="M19.771.141A.62.62 0 0 1 20 .625v17.5a.625.625 0 0 1-.503.612l-6.25 1.25a.6.6 0 0 1-.245 0l-6.127-1.225-6.127 1.225A.625.625 0 0 1 0 19.375v-17.5a.625.625 0 0 1 .502-.613l6.25-1.25a.6.6 0 0 1 .245 0l6.128 1.225L19.253.012a.63.63 0 0 1 .518.129M12.5 2.387l-5-1v16.225l5 1zm1.25 16.225 5-1V1.387l-5 1zm-7.5-1V1.387l-5 1v16.225z" clip-rule="evenodd"/>
    </symbol>
    <symbol id="car" viewBox="0 0 15 13">
    <path fill="#101828" d="M14.988 4.874a.6.6 0 0 0-.04-.12L13.473 1.31C13.133.514 12.305 0 11.363 0H3.637c-.94 0-1.77.514-2.11 1.31L.05 4.754A.6.6 0 0 0 0 5v6.875a.625.625 0 0 0 .625.625h1.25a.625.625 0 0 0 .625-.625v-.625h10v.625a.625.625 0 0 0 .625.625h1.25a.624.624 0 0 0 .625-.625V5a.6.6 0 0 0-.012-.126M3.125 8.75a1.25 1.25 0 1 1 0-2.5 1.25 1.25 0 0 1 0 2.5m8.75 0a1.25 1.25 0 1 1 0-2.5 1.25 1.25 0 0 1 0 2.5M1.573 4.375l1.102-2.572c.142-.33.528-.553.962-.553h7.726c.434 0 .82.222.962.553l1.102 2.572z"/>
    </symbol>
    <symbol id="kpp" viewBox="0 0 20 15">
    <path fill="#101828" fill-rule="evenodd" d="M7.5 1.875A1.875 1.875 0 0 1 9.375 0h1.25A1.875 1.875 0 0 1 12.5 1.875v1.25A1.875 1.875 0 0 1 10.625 5v1.25H17.5a.625.625 0 0 1 .625.625v1.25a.625.625 0 1 1-1.25 0V7.5h-6.25v.625a.625.625 0 1 1-1.25 0V7.5h-6.25v.625a.625.625 0 0 1-1.25 0v-1.25A.625.625 0 0 1 2.5 6.25h6.875V5A1.875 1.875 0 0 1 7.5 3.125zm3.125 1.875a.625.625 0 0 0 .625-.625v-1.25a.625.625 0 0 0-.625-.625h-1.25a.625.625 0 0 0-.625.625v1.25a.625.625 0 0 0 .625.625zM0 11.875A1.875 1.875 0 0 1 1.875 10h1.25A1.875 1.875 0 0 1 5 11.875v1.25A1.875 1.875 0 0 1 3.125 15h-1.25A1.875 1.875 0 0 1 0 13.125zm1.875-.625a.625.625 0 0 0-.625.625v1.25a.625.625 0 0 0 .625.625h1.25a.625.625 0 0 0 .625-.625v-1.25a.625.625 0 0 0-.625-.625zm5.625.625A1.875 1.875 0 0 1 9.375 10h1.25a1.875 1.875 0 0 1 1.875 1.875v1.25A1.875 1.875 0 0 1 10.625 15h-1.25A1.875 1.875 0 0 1 7.5 13.125zm1.875-.625a.625.625 0 0 0-.625.625v1.25a.625.625 0 0 0 .625.625h1.25a.624.624 0 0 0 .625-.625v-1.25a.624.624 0 0 0-.625-.625zm5.625.625A1.875 1.875 0 0 1 16.875 10h1.25A1.875 1.875 0 0 1 20 11.875v1.25A1.875 1.875 0 0 1 18.125 15h-1.25A1.875 1.875 0 0 1 15 13.125zm1.875-.625a.624.624 0 0 0-.625.625v1.25a.624.624 0 0 0 .625.625h1.25a.624.624 0 0 0 .625-.625v-1.25a.624.624 0 0 0-.625-.625z" clip-rule="evenodd"/>
    </symbol>
    <symbol id="gas" viewBox="0 0 20 20">
    <path fill="#101828" d="M3.75 3.125a.625.625 0 0 1 .625-.625h6.25a.625.625 0 0 1 .625.625v6.25a.625.625 0 0 1-.625.625h-6.25a.625.625 0 0 1-.625-.625z"/><path fill="#101828" d="M1.25 2.5A2.5 2.5 0 0 1 3.75 0h7.5a2.5 2.5 0 0 1 2.5 2.5v10a2.5 2.5 0 0 1 2.5 2.5v.625a.624.624 0 1 0 1.25 0V10h-.625a.625.625 0 0 1-.625-.625V5.469a.625.625 0 0 1 .625-.625h1.869c-.014-.595-.067-1.118-.252-1.528A1.2 1.2 0 0 0 18 2.744c-.23-.138-.58-.244-1.125-.244a.625.625 0 1 1 0-1.25q1.057-.003 1.765.42c.479.285.793.689.992 1.134.37.819.368 1.831.368 2.601v3.969a.625.625 0 0 1-.625.626h-.625v5.625a1.875 1.875 0 1 1-3.75 0V15a1.25 1.25 0 0 0-1.25-1.25v5h.625a.624.624 0 1 1 0 1.25H.625a.625.625 0 1 1 0-1.25h.625zm11.25 0a1.25 1.25 0 0 0-1.25-1.25h-7.5A1.25 1.25 0 0 0 2.5 2.5v16.25h10z"/>
    </symbol>
    <symbol id="star" viewBox="0 0 16 16">
    <path fill="#ffc531" d="M6.648.267a.5.5 0 0 1 .884 0L9.42 3.846a.5.5 0 0 0 .357.259l3.988.69a.5.5 0 0 1 .273.84l-2.82 2.903a.5.5 0 0 0-.137.42l.576 4.005a.5.5 0 0 1-.715.52L7.31 11.696a.5.5 0 0 0-.442 0l-3.631 1.785a.5.5 0 0 1-.715-.52l.576-4.005a.5.5 0 0 0-.137-.42L.142 5.637a.5.5 0 0 1 .273-.841l3.987-.69a.5.5 0 0 0 .357-.26z"/>
    </symbol>
    </defs>
</svg>